<svg width="45" height="36" viewBox="0 0 45 36" fill="none" xmlns="http://www.w3.org/2000/svg">
<path fill-rule="evenodd" clip-rule="evenodd" d="M22.5 0C10.0687 0 0 8.25874 0 18.4553C0 26.6218 6.44062 33.5194 15.3844 35.9647C16.5094 36.1262 16.9312 35.5726 16.9312 35.0881C16.9312 34.6498 16.9031 33.1965 16.9031 31.6508C11.25 32.5044 9.7875 30.5204 9.3375 29.4823C9.08438 28.9517 7.9875 27.3138 7.03125 26.8755C6.24375 26.5295 5.11875 25.6759 7.00312 25.6529C8.775 25.6298 10.0406 26.9909 10.4625 27.5445C12.4875 30.3359 15.7219 29.5515 17.0156 29.0671C17.2125 27.8675 17.8031 27.0601 18.45 26.5987C13.4438 26.1373 8.2125 24.5455 8.2125 17.4864C8.2125 15.4794 9.08438 13.8184 10.5188 12.5265C10.2938 12.0651 9.50625 10.1735 10.7438 7.63588C10.7438 7.63588 12.6281 7.15142 16.9312 9.52754C18.7312 9.1123 20.6437 8.90468 22.5562 8.90468C24.4687 8.90468 26.3812 9.1123 28.1812 9.52754C32.4844 7.12836 34.3687 7.63588 34.3687 7.63588C35.6062 10.1735 34.8188 12.0651 34.5938 12.5265C36.0281 13.8184 36.9 15.4563 36.9 17.4864C36.9 24.5686 31.6406 26.1373 26.6344 26.5987C27.45 27.1754 28.1531 28.2827 28.1531 30.0129C28.1531 32.4813 28.125 34.4653 28.125 35.0881C28.125 35.5726 28.5469 36.1493 29.6719 35.9647C34.1385 34.7278 38.0197 32.3732 40.7694 29.2322C43.519 26.0912 44.9987 22.3221 45 18.4553C45 8.25874 34.9313 0 22.5 0Z" fill="black"/>
</svg>
