<svg width="42" height="36" viewBox="0 0 42 36" fill="none" xmlns="http://www.w3.org/2000/svg">
<path d="M21 0C9.40187 0 0 8.05875 0 18C0 27.9412 9.40187 36 21 36C32.5981 36 42 27.9412 42 18C42 8.05875 32.5981 0 21 0ZM15.8594 25.4606H11.6069V13.7306H15.8594V25.4606ZM13.7069 12.2906C12.3637 12.2906 11.4953 11.475 11.4953 10.4662C11.4953 9.43687 12.39 8.64562 13.7616 8.64562C15.1331 8.64562 15.9731 9.43687 15.9994 10.4662C15.9994 11.475 15.1331 12.2906 13.7069 12.2906ZM31.3906 25.4606H27.1381V18.96C27.1381 17.4469 26.5213 16.4194 24.9834 16.4194C23.8088 16.4194 23.1109 17.115 22.8025 17.7844C22.6888 18.0225 22.6603 18.36 22.6603 18.6956V25.4587H18.4056V17.4713C18.4056 16.0069 18.3509 14.7825 18.2941 13.7287H21.9888L22.1834 15.3581H22.2688C22.8288 14.5931 24.2003 13.4644 26.495 13.4644C29.2928 13.4644 31.3906 15.0712 31.3906 18.525V25.4606Z" fill="black"/>
</svg>
